<?xml version="1.0" standalone="no"?><!DOCTYPE svg PUBLIC "-//W3C//DTD SVG 1.1//EN" "http://www.w3.org/Graphics/SVG/1.1/DTD/svg11.dtd"><svg t="1609121288824" class="icon" viewBox="0 0 1024 1024" version="1.1" xmlns="http://www.w3.org/2000/svg" p-id="1125" xmlns:xlink="http://www.w3.org/1999/xlink" width="200" height="200"><defs><style type="text/css"></style></defs><path d="M341.333333 256l128 0 0-42.666667-128 0L341.333333 256zM341.333333 170.666667l170.666667 0L512 128l-170.666667 0L341.333333 170.666667zM810.666667 42.666667 128 42.666667C81.066667 42.666667 42.666667 81.066667 42.666667 128l0 768c0 46.933333 38.4 85.333333 85.333333 85.333333l768 0c46.933333 0 85.333333-38.4 85.333333-85.333333L981.333333 213.333333 810.666667 42.666667zM298.666667 85.333333l426.666667 0 0 256L298.666667 341.333333 298.666667 85.333333zM810.666667 938.666667 213.333333 938.666667 213.333333 554.666667l597.333333 0L810.666667 938.666667zM938.666667 896c0 23.466667-19.2 42.666667-42.666667 42.666667l-42.666667 0L853.333333 554.666667c0-23.466667-19.2-42.666667-42.666667-42.666667L213.333333 512c-23.466667 0-42.666667 19.2-42.666667 42.666667l0 384L128 938.666667c-23.466667 0-42.666667-19.2-42.666667-42.666667L85.333333 128c0-23.466667 19.2-42.666667 42.666667-42.666667l128 0 0 256c0 23.466667 19.2 42.666667 42.666667 42.666667l426.666667 0c23.466667 0 42.666667-19.2 42.666667-42.666667L768 85.333333l21.333333 0 149.333333 149.333333L938.666667 896zM597.333333 298.666667l85.333333 0L682.666667 128l-85.333333 0L597.333333 298.666667z" p-id="1126"></path></svg>